<?xml version="1.0" encoding="utf-8"?>
<!-- Generator: Adobe Illustrator 19.2.1, SVG Export Plug-In . SVG Version: 6.00 Build 0)  -->
<svg version="1.1" id="Layer_1" xmlns="http://www.w3.org/2000/svg" xmlns:xlink="http://www.w3.org/1999/xlink" x="0px" y="0px"
	 viewBox="0 0 64 64" style="enable-background:new 0 0 64 64;" xml:space="preserve">
<style type="text/css">
	.st0{fill:#FFFFFF;}
</style>
<g>
	<g>
		<g>
			<g>
				<path class="st0" d="M45.7,10.7h-6.1c0-1.7-1.4-3.1-3.1-3.1h-9.1c-1.7,0-3.1,1.4-3.1,3.1h-6.1c-1.7,0-3.1,1.4-3.1,3.1h33.5
					C48.8,12.1,47.4,10.7,45.7,10.7z"/>
				<path class="st0" d="M15.2,53.3c0,1.7,1.4,3.1,3.1,3.1h27.5c1.7,0,3.1-1.4,3.1-3.1V16.8H15.2V53.3z M39.6,24.4
					c0-0.9,0.7-1.5,1.5-1.5c0.9,0,1.5,0.7,1.5,1.5v24.4c0,0.9-0.7,1.5-1.5,1.5c-0.9,0-1.5-0.7-1.5-1.5V24.4z M30.5,24.4
					c0-0.9,0.7-1.5,1.5-1.5c0.9,0,1.5,0.7,1.5,1.5v24.4c0,0.9-0.7,1.5-1.5,1.5c-0.9,0-1.5-0.7-1.5-1.5V24.4L30.5,24.4z M21.3,24.4
					c0-0.9,0.7-1.5,1.5-1.5c0.9,0,1.5,0.7,1.5,1.5v24.4c0,0.9-0.7,1.5-1.5,1.5c-0.9,0-1.5-0.7-1.5-1.5V24.4z"/>
			</g>
		</g>
	</g>
</g>
</svg>
