<?xml version="1.0" encoding="utf-8"?>
<!-- Generator: Adobe Illustrator 19.2.1, SVG Export Plug-In . SVG Version: 6.00 Build 0)  -->
<svg version="1.1" id="Layer_1" xmlns="http://www.w3.org/2000/svg" xmlns:xlink="http://www.w3.org/1999/xlink" x="0px" y="0px"
	 viewBox="0 0 64 64" style="enable-background:new 0 0 64 64;" xml:space="preserve">
<style type="text/css">
	.st0{fill:#FFFFFF;}
</style>
<g>
	<path class="st0" d="M59.1,19.1H27.1c-1,0-2,0.8-2.2,1.8L20.4,43c-0.2,1,0.4,1.8,1.5,1.8h31.9c1,0,2-0.8,2.2-1.8L60.5,21
		C60.8,19.9,60.1,19.1,59.1,19.1z M55.3,26.5l-14.2,6.8c-0.6,0.3-1.3,0.3-1.8,0l-11.4-6.8c-0.8-0.5-0.9-1.7-0.3-2.6
		c0.5-0.6,1.2-1,1.9-1c0.3,0,0.6,0.1,0.9,0.2L41,29.5l13.2-6.4c0.3-0.1,0.6-0.2,0.9-0.2c0.7,0,1.3,0.4,1.5,1
		C56.9,24.9,56.3,26,55.3,26.5z"/>
	<path class="st0" d="M8.4,24h13.8c0.7,0,1.3-0.6,1.3-1.3c0-0.7-0.6-1.3-1.3-1.3H8.4c-0.7,0-1.3,0.6-1.3,1.3C7.1,23.4,7.7,24,8.4,24
		z"/>
	<path class="st0" d="M18.5,33.3H4.7c-0.7,0-1.3,0.6-1.3,1.3C3.4,35.4,4,36,4.7,36h13.8c0.7,0,1.3-0.6,1.3-1.3
		C19.8,33.9,19.2,33.3,18.5,33.3z"/>
	<path class="st0" d="M21.7,28.6c0-0.7-0.6-1.3-1.3-1.3h-8.2c-0.7,0-1.3,0.6-1.3,1.3c0,0.7,0.6,1.3,1.3,1.3h8.2
		C21.1,29.9,21.7,29.3,21.7,28.6z"/>
	<path class="st0" d="M16.7,39.2h-4.4c-0.7,0-1.3,0.6-1.3,1.3c0,0.7,0.6,1.3,1.3,1.3h4.4c0.7,0,1.3-0.6,1.3-1.3
		C18,39.8,17.4,39.2,16.7,39.2z"/>
</g>
</svg>
